<?xml version="1.0" standalone="no"?>
<!DOCTYPE svg PUBLIC "-//W3C//DTD SVG 20010904//EN"
 "http://www.w3.org/TR/2001/REC-SVG-20010904/DTD/svg10.dtd">
<svg version="1.0" xmlns="http://www.w3.org/2000/svg"
 width="1651.000000pt" height="1651.000000pt" viewBox="0 0 1651.000000 1651.000000"
 preserveAspectRatio="xMidYMid meet">
<metadata>
Created by potrace 1.11, written by Peter Selinger 2001-2013
</metadata>
<g transform="translate(0.000000,1651.000000) scale(0.100000,-0.100000)"
fill="#000000" stroke="none">
<path d="M6454 16129 c-45 -13 -119 -82 -146 -137 l-23 -47 -1 -2870 c-1
-2676 -2 -2874 -18 -2930 -17 -59 -55 -161 -81 -220 -8 -16 -50 -118 -94 -225
-208 -511 -727 -1656 -1251 -2760 -51 -107 -109 -231 -130 -275 -21 -44 -72
-152 -114 -240 -43 -88 -136 -284 -208 -435 -123 -256 -446 -904 -561 -1120
-88 -167 -631 -1257 -735 -1475 -384 -808 -596 -1346 -654 -1665 -22 -114 -16
-354 11 -458 121 -481 582 -818 1221 -893 82 -10 1087 -12 4600 -12 4193 0
4503 1 4610 17 621 93 1042 401 1175 861 24 82 26 104 25 286 0 254 -26 372
-170 753 -217 578 -480 1129 -1443 3026 -172 339 -371 748 -714 1470 -51 107
-250 530 -428 910 -42 91 -138 298 -212 460 -74 162 -143 313 -153 335 -282
603 -673 1524 -714 1681 -14 56 -16 339 -16 2911 0 2530 -2 2854 -15 2894 -45
130 -185 198 -329 158 -46 -13 -120 -78 -149 -134 l-22 -40 0 -2910 0 -2910
26 -95 c26 -91 81 -240 128 -344 13 -26 52 -121 88 -210 109 -269 284 -672
476 -1096 290 -639 592 -1287 880 -1890 35 -74 110 -232 167 -350 190 -398
236 -494 305 -640 71 -149 402 -807 415 -825 13 -17 580 -1148 667 -1330 499
-1041 713 -1590 713 -1830 0 -68 -33 -194 -67 -258 -16 -28 -55 -78 -89 -112
-125 -127 -312 -209 -574 -251 -97 -16 -423 -17 -4558 -19 -2449 0 -4485 2
-4525 7 -127 13 -160 19 -257 43 -359 91 -556 288 -573 575 -7 113 36 281 143
567 185 490 631 1437 1165 2473 190 368 449 886 575 1150 62 129 140 291 172
360 33 69 79 166 103 215 23 50 124 263 225 475 100 212 237 504 305 650 68
146 142 306 165 355 240 514 551 1210 692 1550 55 132 128 308 163 390 102
242 133 334 150 455 4 25 7 1337 7 2916 0 2820 0 2872 -19 2915 -46 102 -132
160 -237 158 -34 0 -75 -5 -92 -10z"/>
<path d="M8525 11571 c-43 -11 -83 -33 -172 -97 -230 -165 -411 -231 -666
-240 -104 -4 -197 3 -304 22 l-33 6 0 -553 c0 -597 -4 -658 -54 -837 -32 -112
-70 -214 -134 -362 -27 -63 -87 -205 -132 -315 -258 -628 -833 -1879 -1640
-3570 -31 -66 -101 -212 -155 -325 -89 -189 -226 -460 -490 -975 -545 -1061
-996 -2013 -1160 -2450 -52 -137 -58 -223 -22 -297 29 -59 78 -97 162 -126 47
-15 348 -17 4490 -18 2790 -2 4462 1 4500 7 119 19 211 80 236 158 18 52 15
137 -6 201 -117 360 -597 1387 -1140 2440 -421 815 -708 1402 -1203 2455 -433
923 -837 1814 -1062 2345 -45 107 -119 283 -165 390 -134 317 -177 445 -211
635 -4 22 -9 309 -11 637 l-4 597 -72 35 c-40 19 -108 59 -152 90 -44 30 -105
72 -135 93 -81 55 -178 75 -265 54z"/>
</g>
</svg>
