<svg xmlns="http://www.w3.org/2000/svg" viewBox="0 0 60 55"><view viewBox="4.5 1.5 51 49"/><linearGradient id="a" x2="50%" y2="40%" spreadMethod="reflect"><stop stop-color="gold" offset="30%"/><stop stop-color="#daa520" offset="70%"/><stop stop-color="#fff" offset="82%"/><stop stop-color="gold" offset="92%"/><stop stop-color="#b8860b" offset="100%"/></linearGradient><radialGradient id="b" fx="30%" fy="35%"><stop stop-color="#fff" offset="0%"/><stop stop-color="gold" offset="15%"/><stop stop-color="#daa520" offset="80%"/><stop stop-color="#b8860b" offset="100%"/></radialGradient><g fill="url(#a)" stroke="#b8860b" stroke-width=".5"><circle r="5" transform="translate(30 7)"/><circle r="5" transform="translate(35 13)"/><circle r="5" transform="translate(22 10)"/><circle r="5" transform="translate(27 9)"/><circle r="5" transform="translate(18 17)"/><circle r="5" transform="translate(42 18)"/><circle r="5" transform="translate(32 19)"/><circle r="5" transform="translate(30 14)"/><circle r="5" transform="translate(25 15)"/><circle r="5" transform="translate(37 19)"/><circle r="5" transform="translate(31 16)"/><circle r="5" transform="translate(20 18)"/><circle r="5" transform="translate(26 21)"/></g><path fill="url(#b)" stroke="#751" stroke-width=".5" d="M30 50c15 0 25-5 25-15q0-8-5-10c5-3 3-10-5-5s-22 5-30 0-10 2-5 5q-5 2-5 10c0 10 10 15 25 15z"/></svg>