<svg width="500" height="500" viewBox="0 0 500 500" fill="none" xmlns="http://www.w3.org/2000/svg">
<path fill-rule="evenodd" clip-rule="evenodd" d="M0 0H500V500H0V0Z" fill="white"/>
<path fill-rule="evenodd" clip-rule="evenodd" d="M171.315 176.137V188.171L143.046 192.741V180.871L171.315 176.137ZM171.315 193.493V340.472L143.046 326.986V198.196L171.315 193.493V193.493ZM329.406 340.493V265.115C329.406 229.062 304.828 206.196 266.082 206.196C223.542 206.196 208.388 235.534 203.016 247.035C217.656 236.61 230.483 232.942 248.493 234.133C271.32 235.645 288.626 249.839 288.626 266.716V330.177L329.406 340.493ZM197.797 101.177L187.068 99.4211H171.315V170.83L143.046 175.598V120.313L158.247 98.0074L167.108 75.5282L180.383 42.5539L171.328 94.7883L187.008 94.7935L196.435 96.3187L185.724 57.8997L205.667 28.8215L262.101 7.35132L197.797 101.177V101.177ZM262.147 67.8475C249.847 60.8542 253.063 72.4881 253.063 54.9089C253.063 53.0179 253.388 50.1282 253.727 49.6872C253.792 49.599 253.782 49.4175 253.823 49.2022L251.209 50.1438C250.776 50.2423 250.389 52.027 250.467 54.7221C250.659 61.2744 252.436 65.2509 259.33 68.9603L262.147 67.8475V67.8475ZM345.154 164.636V122.129C345.154 118.424 343.133 115.667 340.583 115.667C338.033 115.667 335.992 118.702 335.992 122.411L337.471 122.44C337.471 120.679 338.104 119.55 338.996 119.55C339.883 119.55 340.612 120.966 340.612 122.73L340.591 164.641H345.154V164.636V164.636Z" fill="#CC2229"/>
<path fill-rule="evenodd" clip-rule="evenodd" d="M182.508 164.636L182.529 122.725C182.529 120.961 181.808 119.545 180.915 119.545C180.023 119.545 179.388 120.676 179.388 122.435L177.912 122.406C177.912 118.699 179.953 115.662 182.503 115.662C185.05 115.662 187.084 118.419 187.084 122.123L187.053 164.631H182.508V164.636V164.636Z" fill="#CC2229"/>
<path fill-rule="evenodd" clip-rule="evenodd" d="M171.375 170.822V176.137H354.536L359.449 170.936H329.442L329.492 99.421H345.209L354.632 100.941L359.501 97.1512L345.154 94.7933L329.497 94.8115L338.526 42.5537L318.976 91.3564L266.71 14.3211L265.263 14.1577L261.229 20.2924L264.199 20.9383L319.072 103.621L319.061 170.822H171.375Z" fill="#CC2229"/>
<path fill-rule="evenodd" clip-rule="evenodd" d="M300.185 164.635V130.473C300.185 118.616 295.215 109.418 288.785 109.418C282.907 109.418 277.978 120.46 277.978 133.625V164.635H300.185ZM269.346 164.635V108.168C269.346 96.3133 264.355 87.1125 257.927 87.1125C252.049 87.1125 247.118 98.1576 247.118 111.322L247.105 164.635H269.346V164.635ZM238.618 164.635V130.473C238.618 118.616 233.627 109.418 227.199 109.418C221.321 109.418 216.393 120.46 216.393 133.625L216.387 164.635H238.618V164.635Z" fill="#CC2229"/>
<path fill-rule="evenodd" clip-rule="evenodd" d="M224.408 109.991C223.71 110.1 222.634 110.975 222.299 111.569C228.579 114.728 230.893 119.981 230.893 130.393V166.853H234.54V133.495C234.537 119.226 230.595 111.465 224.408 109.991ZM255.133 87.686C254.438 87.795 253.359 88.6691 253.022 89.2606C259.304 92.4226 261.613 97.6727 261.613 108.085V166.848H265.26V111.187C265.263 96.9231 261.32 89.1594 255.133 87.686V87.686ZM285.994 109.991C285.298 110.1 284.219 110.975 283.882 111.569C290.165 114.728 292.473 119.981 292.473 130.393V166.853H296.12V133.495C296.12 119.226 292.18 111.465 285.994 109.991V109.991Z" fill="white"/>
<path fill-rule="evenodd" clip-rule="evenodd" d="M171.375 188.17V193.457H354.536L359.449 188.17H171.375Z" fill="#CC2229"/>
<path fill-rule="evenodd" clip-rule="evenodd" d="M70.2753 385.319H75.2661C79.4942 385.319 80.5629 385.729 80.5629 387.355C80.5629 387.796 80.5007 388.317 80.384 388.917L80.3165 389.272H81.502L82.7963 382.356H81.7873C81.5357 382.797 80.9183 383.106 80.0571 383.218C78.7394 383.389 74.0184 383.542 68.2987 383.594L66.898 383.599C60.1226 383.599 56.5014 383.35 55.6792 382.823C55.5028 382.712 55.4275 382.605 55.3523 382.356H54.2758L52.9789 389.272H54.0372C54.8232 386.268 56.7868 385.321 62.2289 385.321H66.3195V412.164C66.3195 414.97 65.5466 415.958 63.3547 415.958H62.8618V416.947C64.5972 416.77 65.1004 416.75 68.2987 416.75C71.4919 416.75 71.9951 416.77 73.7331 416.947V415.958H73.2376C71.0457 415.958 70.2727 414.97 70.2727 412.164V385.319H70.2753V385.319ZM93.1721 400.143H110.961V412.161C110.961 414.952 110.178 415.956 107.997 415.956H107.504V416.944C109.242 416.768 109.742 416.747 112.941 416.747C116.136 416.747 116.64 416.768 118.378 416.944V415.956H117.885C115.693 415.956 114.917 414.968 114.917 412.161V388.125C114.917 385.319 115.69 384.33 117.885 384.33H118.378V383.342C116.64 383.519 116.136 383.539 112.941 383.539C109.745 383.539 109.242 383.519 107.504 383.342V384.33H107.997C110.178 384.33 110.961 385.334 110.961 388.125V398.662H93.1721V388.125C93.1721 385.319 93.9451 384.33 96.137 384.33H96.6299V383.342C94.8919 383.519 94.3887 383.539 91.193 383.539C87.9998 383.539 87.4966 383.519 85.7586 383.342V384.33H86.2515C88.4434 384.33 89.2164 385.319 89.2164 388.125V412.161C89.2164 414.968 88.4434 415.956 86.2515 415.956H85.7586V416.944C87.4966 416.768 87.9998 416.747 91.193 416.747C94.3887 416.747 94.8919 416.768 96.6299 416.944V415.956H96.137C93.9451 415.956 93.1721 414.968 93.1721 412.161V400.143ZM123.516 416.942H137.728C140.268 416.942 140.776 416.91 141.303 416.724C142.115 416.441 142.496 415.831 143.041 413.948C143.126 413.655 143.28 413.193 143.495 412.576L143.565 412.379L142.457 411.985L142.366 412.223C141.604 414.259 139.49 414.97 134.206 414.97H130.922V400.146H134.784C138.706 400.146 140.014 400.825 140.014 402.856V403.111H141.005V395.7H140.014V395.912C140.014 397.912 138.517 398.667 134.54 398.667H130.922V385.321H136.948C139.656 385.321 140.346 385.635 140.875 387.101L141.005 387.461L141.913 387.233L141.3 383.347H123.514V384.336H124.009C126.201 384.336 126.974 385.324 126.974 388.131V412.166C126.974 414.973 126.201 415.961 124.009 415.961H123.514V416.942H123.516V416.942ZM52.6183 486.797L51.2046 487.816C53.2331 491.24 56.1098 492.649 61.0953 492.649C66.566 492.649 71.5541 490.82 76.1869 487.111C83.0013 481.663 86.9207 475.938 92.0101 463.998L92.2669 463.397C101.914 457.402 109.169 446.795 109.169 438.679C109.169 436.409 107.794 434.734 105.934 434.734C101.475 434.734 96.4172 441.483 91.1644 454.437L86.7132 465.397L86.5861 465.7L86.3371 465.853C81.6887 468.639 80.2154 469.339 76.3063 470.595C81.4112 466.901 84.0181 462.468 84.0181 457.477C84.0181 451.789 80.5552 448.033 75.3154 448.033C66.6775 448.033 58.6077 455.83 58.6077 464.175C58.6077 470.107 62.0758 473.938 67.4453 473.938C73.1365 473.938 81.3956 471.036 85.8416 467.469C79.943 482.288 70.3298 491.17 60.2004 491.17C56.8309 491.165 54.2473 489.673 52.6183 486.797V486.797Z" fill="black"/>
<path fill-rule="evenodd" clip-rule="evenodd" d="M92.791 461.436L93.0089 460.842L94.9155 455.299C99.7221 441.33 102.739 436.041 105.903 436.041C106.951 436.041 107.688 437.084 107.688 438.575C107.685 445.369 101.281 455.192 92.791 461.436V461.436ZM62.1616 466.248C62.1616 461.628 64.1927 456.803 67.5415 453.496C70.1069 450.954 72.9732 449.493 75.4089 449.493C78.5658 449.493 80.5891 451.742 80.5891 455.244C80.5891 459.322 78.5684 464.292 75.4089 467.98C73.0666 470.717 70.1821 472.18 67.1394 472.18C64.2368 472.18 62.1616 469.708 62.1616 466.248Z" fill="white"/>
<path fill-rule="evenodd" clip-rule="evenodd" d="M406.527 385.319H411.513C415.749 385.319 416.812 385.729 416.812 387.355C416.812 387.796 416.752 388.317 416.636 388.917C416.62 388.997 416.594 389.114 416.566 389.272H417.756L419.048 382.356H418.039C417.785 382.797 417.167 383.106 416.306 383.218C414.988 383.389 410.267 383.542 404.548 383.594L403.15 383.599C396.372 383.599 392.753 383.35 391.933 382.823C391.752 382.712 391.679 382.605 391.604 382.356H390.53L389.233 389.272H390.291C391.077 386.268 393.038 385.321 398.483 385.321H402.571V412.164C402.571 414.97 401.801 415.959 399.606 415.959H399.116V416.947C400.849 416.771 401.355 416.75 404.548 416.75C407.744 416.75 408.247 416.771 409.985 416.947V415.959H409.495C407.3 415.959 406.53 414.97 406.53 412.164V385.319H406.527V385.319ZM296.11 416.942H310.322C312.865 416.942 313.373 416.911 313.9 416.724C314.709 416.441 315.09 415.832 315.637 413.948C315.723 413.655 315.881 413.193 316.094 412.576L316.164 412.379L315.054 411.985L314.968 412.223C314.203 414.26 312.092 414.97 306.802 414.97H303.524V400.146H307.389C311.306 400.146 312.613 400.825 312.613 402.857V403.111H313.606V395.7H312.613V395.912C312.613 397.912 311.119 398.667 307.142 398.667H303.524V385.321H309.552C312.258 385.321 312.942 385.635 313.474 387.101L313.606 387.461L314.514 387.233L313.902 383.347H296.115V384.336H296.611C298.8 384.336 299.576 385.324 299.576 388.131V412.166C299.576 414.973 298.8 415.961 296.611 415.961H296.115V416.942H296.11V416.942ZM164.521 384.33H165.014C167.206 384.33 167.977 385.319 167.977 388.125V407.064C167.977 413.619 172.373 417.972 178.991 417.972C181.719 417.972 184.619 417.258 189.04 415.484C190.526 414.887 190.811 414.745 191.678 414.156L192.469 416.942C193.475 416.791 194.492 416.723 195.509 416.739C196.866 416.739 197.48 416.776 199.112 416.942V415.953H198.619C196.427 415.953 195.654 414.965 195.654 412.158V388.123C195.654 385.316 196.427 384.328 198.619 384.328H199.112V383.34C197.374 383.516 196.871 383.537 193.675 383.537C190.482 383.537 189.976 383.516 188.238 383.34V384.328H188.731C190.923 384.328 191.698 385.316 191.698 388.123V412C190.741 412.714 190.383 412.893 188.534 413.551C185.379 414.677 183.335 415.108 181.177 415.108C175.328 415.108 171.932 412.153 171.932 407.061V388.123C171.932 385.316 172.705 384.328 174.897 384.328H175.39V383.34C173.655 383.516 173.152 383.537 169.956 383.537C166.76 383.537 166.259 383.516 164.521 383.34V384.33V384.33ZM233.404 410.026L211.169 383.342C209.563 383.503 208.977 383.539 207.711 383.539C206.445 383.539 205.854 383.503 204.253 383.342V384.33H204.489C205.789 384.33 206.437 384.624 207.355 385.617L207.711 386.001V412.158C207.711 414.965 206.938 415.953 204.746 415.953H204.253V416.942C205.905 416.776 206.52 416.745 208.699 416.745C210.878 416.745 211.495 416.776 213.148 416.942V415.953H212.655C210.463 415.953 209.69 414.965 209.69 412.158V388.286L235.383 418.425V388.123C235.383 385.316 236.156 384.328 238.348 384.328H238.841V383.34C237.191 383.511 236.574 383.537 234.395 383.537C232.213 383.537 231.596 383.511 229.949 383.34V384.328H230.442C232.634 384.328 233.407 385.316 233.407 388.123V410.026H233.404ZM243.194 384.33H243.684C245.878 384.33 246.651 385.319 246.651 388.125V412.161C246.651 414.968 245.878 415.956 243.684 415.956H243.194V416.944C244.926 416.768 245.432 416.747 248.628 416.747C251.821 416.747 252.327 416.768 254.065 416.944V415.956H253.569C251.377 415.956 250.604 414.968 250.604 412.161V388.125C250.604 385.319 251.377 384.33 253.569 384.33H254.065V383.342C252.327 383.519 251.821 383.539 248.628 383.539C245.435 383.539 244.929 383.519 243.194 383.342V384.33ZM374.603 384.33H375.099C377.293 384.33 378.064 385.319 378.064 388.125V412.161C378.064 414.968 377.293 415.956 375.099 415.956H374.603V416.944C376.341 416.768 376.842 416.747 380.04 416.747C383.238 416.747 383.739 416.768 385.477 416.944V415.956H384.982C382.792 415.956 382.017 414.968 382.017 412.161V388.125C382.017 385.319 382.792 384.33 384.982 384.33H385.477V383.342C383.739 383.519 383.238 383.539 380.04 383.539C376.842 383.539 376.341 383.519 374.603 383.342V384.33ZM283.613 384.33H283.851C284.871 384.33 285.711 385.262 285.711 386.387C285.711 387.072 285.483 388.045 285.047 389.205L276.866 411.025L267.852 389.205C267.361 388.019 267.118 387.093 267.118 386.413C267.118 385.324 268.036 384.33 269.047 384.33H269.281V383.342C269.111 383.355 268.94 383.366 268.77 383.373C267.888 383.404 266.181 383.425 263.642 383.425C261.997 383.435 260.352 383.416 258.708 383.366L258.415 383.345V384.333H258.612C260.314 384.333 261.886 385.443 262.604 387.16L275.706 418.431L287.283 388.712C288.287 386.133 288.606 385.586 289.436 384.987C289.978 384.598 290.673 384.333 291.164 384.333H291.519V383.345C290.697 383.411 289.872 383.436 289.047 383.42L288.24 383.415L283.862 383.363L283.613 383.342V384.33V384.33ZM350.56 408.898L351.841 415.468C353.828 416.713 357.008 417.557 359.729 417.557C366.155 417.557 370.253 413.736 370.253 407.759C370.253 403.023 368.227 400.556 361.423 397.023C356.287 394.359 354.868 392.797 354.868 389.819C354.868 386.673 357.193 384.53 360.609 384.53C364.048 384.53 366.056 386.029 367.089 389.373L367.125 389.5H368.235L367.719 383.218H367.117C366.959 383.446 366.788 383.511 366.388 383.511C365.83 383.511 365.553 383.469 363.322 383.039C362.404 382.846 361.469 382.743 360.531 382.73C355.232 382.73 351.291 386.281 351.291 391.059C351.291 393.796 352.578 396.187 354.923 397.822C356.012 398.577 357.416 399.432 359.123 400.379C365.587 403.962 366.969 405.513 366.969 409.155C366.969 413.025 364.323 415.725 360.536 415.725C356.145 415.725 353.307 413.487 351.644 408.698L350.56 408.898V408.898ZM331.505 415.959H331.009C328.82 415.959 328.05 414.97 328.05 412.164V401.63H328.21C330.745 401.63 331.691 402.167 333.196 404.452L341.388 416.944L341.616 416.924C343.009 416.802 344.168 416.742 345.102 416.742C346.049 416.742 346.993 416.796 348.345 416.924L348.552 416.944V415.956H348.314C346.926 415.956 344.682 414.426 343.491 412.662L337.608 403.967C336.259 401.967 335.562 401.256 334.643 400.963C339.152 400.133 342.293 396.372 342.293 391.804C342.293 389.474 341.619 387.391 340.379 385.902C338.604 383.781 337.274 383.345 332.49 383.345H320.636V384.333H321.126C323.321 384.333 324.091 385.321 324.091 388.128V412.164C324.091 414.97 323.321 415.959 321.126 415.959H320.636V416.947C322.369 416.771 322.875 416.75 326.068 416.75C329.264 416.75 329.767 416.771 331.505 416.947V415.959V415.959Z" fill="black"/>
<path fill-rule="evenodd" clip-rule="evenodd" d="M328.049 385.324L328.273 385.293L329.538 385.096C330.434 384.951 331.337 384.868 332.244 384.847C336.088 384.847 338.135 387.259 338.135 391.778C338.135 397.661 335.601 400.148 329.598 400.148H328.047V385.324H328.049Z" fill="white"/>
<path fill-rule="evenodd" clip-rule="evenodd" d="M448.282 384.426V383.443C447.537 383.503 446.873 383.513 444.544 383.513C442.907 383.513 441.779 383.498 441.153 383.461L440.91 383.441V384.424H441.148C442.269 384.424 442.749 384.738 442.749 385.487C442.747 385.674 442.72 385.86 442.668 386.04C442.622 386.239 442.554 386.433 442.466 386.618L435.82 397.617L429.224 386.618C429.052 386.292 428.952 385.933 428.931 385.565C428.931 384.901 429.478 384.426 430.228 384.426H430.466V383.443L429.955 383.474C429.328 383.511 427.802 383.526 425.39 383.526C423.504 383.526 422.142 383.506 421.307 383.467L421.009 383.446V384.429H421.8C422.936 384.429 423.761 385.077 424.845 386.831L432.804 399.663V412.223C432.804 415.014 432.033 415.997 429.854 415.997H429.364V416.98C431.097 416.804 431.592 416.783 434.775 416.783C437.953 416.783 438.448 416.804 440.181 416.98V415.997H439.685C437.506 415.997 436.741 415.014 436.741 412.223V399.663L444.554 386.831C445.592 385.119 446.468 384.429 447.599 384.429H448.282V384.426V384.426ZM382.219 441.828H387.21C391.44 441.828 392.509 442.233 392.509 443.864C392.509 444.3 392.449 444.821 392.328 445.421C392.305 445.541 392.283 445.661 392.263 445.781H393.448L394.74 438.86H393.731C393.482 439.301 392.864 439.61 392.003 439.722C390.686 439.893 385.965 440.046 380.245 440.098L378.842 440.108C372.069 440.108 368.45 439.854 367.63 439.327C367.449 439.216 367.376 439.109 367.301 438.86H366.227L364.93 445.781H365.989C366.775 442.772 368.736 441.831 374.175 441.831H378.268V468.673C378.268 471.474 377.493 472.468 375.303 472.468H374.808V473.456C376.546 473.274 377.047 473.259 380.245 473.259C383.443 473.259 383.944 473.274 385.682 473.456V472.468H385.186C382.997 472.468 382.221 471.474 382.221 468.673V441.828H382.219ZM286.728 456.647H304.52V468.67C304.52 471.461 303.734 472.465 301.55 472.465H301.059V473.453C302.797 473.272 303.298 473.256 306.496 473.256C309.687 473.256 310.195 473.272 311.933 473.453V472.465H311.438C309.243 472.465 308.473 471.472 308.473 468.67V444.629C308.473 441.828 309.243 440.84 311.438 440.84H311.933V439.846C310.195 440.028 309.689 440.048 306.496 440.048C303.3 440.048 302.797 440.028 301.059 439.846V440.84H301.55C303.734 440.84 304.52 441.838 304.52 444.629V455.166H286.728V444.629C286.728 441.828 287.503 440.84 289.693 440.84H290.188V439.846C288.455 440.028 287.949 440.048 284.751 440.048C281.561 440.048 281.057 440.028 279.319 439.846V440.84H279.81C282.004 440.84 282.78 441.828 282.78 444.629V468.67C282.78 471.472 282.004 472.465 279.81 472.465H279.319V473.453C281.057 473.272 281.558 473.256 284.751 473.256C287.947 473.256 288.455 473.272 290.188 473.453V472.465H289.693C287.503 472.465 286.728 471.472 286.728 468.67V456.647ZM317.86 473.451H332.073C334.615 473.451 335.123 473.42 335.65 473.233C336.459 472.945 336.84 472.341 337.393 470.452C337.478 470.159 337.626 469.703 337.844 469.08L337.914 468.883L336.804 468.489L336.718 468.727C335.953 470.763 333.842 471.479 328.558 471.479H325.274V456.65H329.139C333.056 456.65 334.368 457.329 334.368 459.36V459.62H335.357V452.209H334.368V452.416C334.368 454.416 332.869 455.171 328.892 455.171H325.274V441.831H331.302C334.008 441.831 334.698 442.139 335.224 443.61L335.357 443.965L336.264 443.737L335.652 439.851H317.866V440.845H318.361C320.55 440.845 321.326 441.833 321.326 444.635V468.675C321.326 471.477 320.55 472.47 318.361 472.47H317.866V473.451H317.86V473.451ZM397.705 473.451H411.917C414.457 473.451 414.962 473.42 415.494 473.233C416.303 472.945 416.685 472.341 417.232 470.452C417.318 470.159 417.471 469.703 417.689 469.08L417.753 468.883L416.648 468.489L416.563 468.727C415.798 470.763 413.686 471.479 408.397 471.479H405.118V456.65H408.983C412.9 456.65 414.208 457.329 414.208 459.36V459.62H415.196V452.209H414.208V452.416C414.208 454.416 412.713 455.171 408.737 455.171H405.118V441.831H411.147C413.852 441.831 414.537 442.139 415.069 443.61L415.196 443.965L416.109 443.737L415.497 439.851H397.71V440.845H398.2C400.395 440.845 401.165 441.833 401.165 444.635V468.675C401.165 471.477 400.395 472.47 398.2 472.47H397.71V473.451H397.705V473.451ZM233.37 466.533L211.132 439.849C209.529 440.015 208.94 440.051 207.674 440.051C206.409 440.051 205.822 440.015 204.217 439.849V440.842H204.453C205.752 440.842 206.401 441.13 207.319 442.124L207.674 442.508V468.67C207.674 471.472 206.901 472.465 204.71 472.465H204.217V473.453C205.869 473.282 206.484 473.256 208.663 473.256C210.844 473.256 211.459 473.282 213.111 473.453V472.465H212.619C210.427 472.465 209.654 471.472 209.654 468.67V444.793L235.347 474.932V444.629C235.347 441.828 236.122 440.84 238.314 440.84H238.807V439.846C237.155 440.017 236.54 440.048 234.361 440.048C232.182 440.048 231.562 440.017 229.912 439.846V440.84H230.405C232.597 440.84 233.373 441.828 233.373 444.629V466.533H233.37V466.533ZM342.264 465.407L343.551 471.977C345.538 473.223 348.713 474.066 351.439 474.066C357.854 474.066 361.963 470.239 361.963 464.263C361.963 459.526 359.932 457.06 353.128 453.527C347.994 450.868 346.573 449.301 346.573 446.328C346.573 443.177 348.897 441.034 352.313 441.034C355.753 441.034 357.766 442.533 358.793 445.877L358.829 446.009H359.939L359.423 439.722H358.827C358.666 439.95 358.492 440.02 358.093 440.02C357.535 440.02 357.257 439.973 355.027 439.543C354.108 439.354 353.173 439.253 352.235 439.239C346.936 439.239 342.998 442.785 342.998 447.563C342.998 450.305 344.28 452.697 346.625 454.326C347.714 455.08 349.112 455.936 350.824 456.883C357.294 460.471 358.676 462.017 358.676 465.664C358.676 469.529 356.028 472.229 352.238 472.229C347.852 472.229 345.009 469.99 343.341 465.207L342.264 465.407V465.407ZM124.468 472.465V473.453C125.952 473.277 126.468 473.256 128.792 473.256C131.168 473.256 131.726 473.277 133.257 473.453V472.465H133.049C131.052 472.465 130.032 471.215 130.032 468.761C130.032 468.016 130.071 467.21 130.152 466.343L132.097 445.384L143.197 474.11L153.941 445.384L156.016 468.162C156.05 468.527 156.068 468.896 156.068 469.267C156.068 471.451 155.168 472.462 153.23 472.462H152.963V473.451L153.427 473.435L159.238 473.259L163.606 473.43L163.99 473.451V472.462H163.712C161.52 472.462 160.485 471.363 160.234 468.764L157.881 444.492C157.843 444.125 157.822 443.756 157.819 443.387C157.819 441.903 158.597 441.182 160.203 441.182H160.54V439.844L160.231 439.854C157.718 439.934 156.587 439.971 156.099 439.971C155.31 439.971 154.919 439.945 154.076 439.844L144.164 466.675L134.302 439.823C133.34 440.072 133.046 440.1 131.731 440.1C131.389 440.1 131.047 440.09 130.704 440.069L127.638 439.893L127.431 439.882V441.013H127.737C129.314 441.013 130.318 441.89 130.318 443.273C130.318 443.527 130.302 443.825 130.266 444.165L127.895 467.643C127.558 470.992 126.564 472.46 124.645 472.46H124.468V472.465V472.465ZM273.242 470.219L273.683 465.345H272.64C271.327 469.601 266.951 472.281 261.312 472.281C253.364 472.281 247.427 465.371 247.427 456.105C247.427 447.005 252.856 440.866 260.9 440.866C266.316 440.866 270.759 443.514 271.631 447.265H272.757L272.29 439.849H271.281C271.19 440.22 270.91 440.331 270.085 440.331C269.172 440.331 268.165 440.24 267.081 440.072L264.977 439.732C263.447 439.488 261.917 439.366 260.407 439.366C249.912 439.366 242.462 446.712 242.462 457.073C242.462 467.064 249.668 473.944 260.135 473.944C264.132 473.944 269.701 472.364 273.242 470.219V470.219ZM168.143 473.451L168.441 473.43L172.039 473.254L176.15 473.451H176.327V472.462H175.852C174.895 472.462 174.238 471.661 174.238 470.496C174.238 469.939 174.373 469.236 174.586 468.652L176.819 462.587H189.055L191.514 468.834C191.716 469.345 191.901 470.348 191.901 470.927C191.889 471.331 191.723 471.716 191.436 472.001C191.149 472.287 190.764 472.452 190.36 472.462H190.082V473.451L190.29 473.43C191.847 473.298 193.409 473.239 194.972 473.254C196.98 473.254 198.788 473.308 200.388 473.43L200.658 473.451V472.462H200.251C198.858 472.462 197.301 471.171 196.554 469.396L184.132 439.844H178.026V440.837H178.262C179.489 440.837 180.29 441.537 181.128 443.335L181.789 444.759L172.272 468.398C171.302 470.81 169.844 472.335 168.42 472.442L168.143 472.462V473.451V473.451Z" fill="black"/>
<path fill-rule="evenodd" clip-rule="evenodd" d="M177.364 461.096L182.752 446.65L188.472 461.096H177.364Z" fill="white"/>
<path fill-rule="evenodd" clip-rule="evenodd" d="M431.751 472.489H431.255C429.061 472.489 428.29 471.5 428.29 468.694V458.16H428.456C430.991 458.16 431.937 458.691 433.437 460.987L441.628 473.474L441.862 473.453C443.25 473.337 444.414 473.272 445.348 473.272C446.295 473.272 447.239 473.326 448.59 473.453L448.793 473.474V472.486H448.559C447.172 472.486 444.928 470.955 443.737 469.192L437.854 460.497C436.505 458.497 435.802 457.786 434.889 457.493C439.392 456.663 442.539 452.902 442.539 448.339C442.539 446.004 441.864 443.927 440.619 442.432C438.85 440.311 437.514 439.875 432.736 439.875H420.877V440.863H421.372C423.561 440.863 424.337 441.851 424.337 444.658V468.694C424.337 471.5 423.561 472.489 421.372 472.489H420.877V473.477C422.615 473.3 423.115 473.28 426.314 473.28C429.512 473.28 430.013 473.3 431.751 473.477V472.489V472.489Z" fill="black"/>
<path fill-rule="evenodd" clip-rule="evenodd" d="M428.29 441.854L428.518 441.823L429.784 441.626C430.679 441.481 431.583 441.398 432.49 441.377C436.329 441.377 438.381 443.789 438.381 448.313C438.381 454.191 435.841 456.678 429.839 456.678H428.288V441.854H428.29V441.854Z" fill="white"/>
</svg>
